<?xml version="1.0" encoding="UTF-8" standalone="no"?>
<svg width="66px" height="94px" viewBox="0 0 66 94" version="1.1" xmlns="http://www.w3.org/2000/svg" xmlns:xlink="http://www.w3.org/1999/xlink" xmlns:sketch="http://www.bohemiancoding.com/sketch/ns">
    <!-- Generator: Sketch 3.2.1 (9971) - http://www.bohemiancoding.com/sketch -->
    <title>bottle</title>
    <desc>Created with Sketch.</desc>
    <defs></defs>
    <g id="Page-1" stroke="none" stroke-width="1" fill="none" fill-rule="evenodd" sketch:type="MSPage">
        <g id="Layer_1" sketch:type="MSLayerGroup" transform="translate(-13.000000, -4.000000)"></g>
        <g id="bottle" sketch:type="MSArtboardGroup" fill="#000000">
            <g id="Layer_2" sketch:type="MSLayerGroup" transform="translate(2.000000, 2.000000)">
                <path d="M50.7,81.4 C53.8,78 55.9,73.6 56.3,68.7 C56.7,64 55.6,59.5 53.1,55.5 C52.6,54.6 52.1,53.7 51.7,52.9 L50.6,50.7 C48.7,44.1 47.6,38.8 47.6,35.5 L47.6,13.3 L40.9,13.3 L34.5,0.7 L19.7,0.7 L26,13.3 L21.7,13.3 L21.7,35.5 C21.7,38.8 20.7,43.9 18.8,50.3 L18.5,51.3 C18,53 17.3,54.8 16.2,56.8 C14.5,59.9 13.7,63.4 13.7,66.9 C13.7,72.1 15.6,76.8 18.6,80.5 C7.7,81.2 0.1,82.8 0.1,84.7 C0.1,87.2 13.6,89.3 30.3,89.3 C47,89.3 60.5,87.3 60.5,84.7 C60.5,83.4 56.7,82.2 50.7,81.4 L50.7,81.4 Z M31.4,5.7 L35.2,13.3 L31.5,13.3 L27.7,5.7 L31.4,5.7 L31.4,5.7 Z M40.5,20.3 L40.5,24 L28.7,24 L28.7,20.3 L40.5,20.3 L40.5,20.3 Z M49.3,68.1 C48.8,74.8 43.3,80.4 36.7,81.1 C36.1,81.2 35.6,81.2 35,81.2 C27.1,81.2 20.7,74.8 20.7,66.9 C20.7,64.5 21.3,62.2 22.4,60.1 C23.7,57.6 24.7,55.3 25.3,53.1 L25.6,52.2 C27.7,45.1 28.7,39.5 28.7,35.5 L28.7,29 L40.5,29 L40.5,35.6 C40.5,39.7 41.6,45.6 43.9,53.1 L44,53.4 L45.4,56.2 C45.9,57.2 46.5,58.3 47.2,59.4 C48.8,61.9 49.5,65 49.3,68.1 L49.3,68.1 Z" id="Shape" sketch:type="MSShapeGroup"></path>
                <path d="M45.4,60 L44.7,58.9 L25.4,58.9 L24.6,60 C23.2,62.1 22.5,64.5 22.5,67 C22.5,73.9 28.1,79.5 35,79.5 C41.9,79.5 47.5,73.9 47.5,67 C47.5,64.4 46.8,62 45.4,60 L45.4,60 Z M27.8,69.2 L32.7,74.1 C30.4,73.4 28.6,71.5 27.8,69.2 L27.8,69.2 Z M35.9,74.4 L27.5,66 C27.6,65.4 27.7,64.8 27.9,64.3 L37.6,74 C37.1,74.2 36.5,74.3 35.9,74.4 L35.9,74.4 Z M39.5,73 L30.4,63.9 L32.6,63.9 L40.7,72 C40.3,72.3 39.9,72.6 39.5,73 L39.5,73 Z M41.7,70.2 L35.3,63.8 L37.5,63.8 L42.3,68.6 C42.2,69.2 42,69.7 41.7,70.2 L41.7,70.2 Z M40.4,63.8 L41.9,63.8 C42.2,64.5 42.4,65.2 42.5,65.9 L40.4,63.8 L40.4,63.8 Z" id="Shape" sketch:type="MSShapeGroup"></path>
            </g>
        </g>
    </g>
</svg>