<?xml version="1.0" encoding="UTF-8" standalone="no"?>
<svg width="400px" height="213px" viewBox="0 0 400 213" version="1.1" xmlns="http://www.w3.org/2000/svg" xmlns:xlink="http://www.w3.org/1999/xlink" xmlns:sketch="http://www.bohemiancoding.com/sketch/ns">
    <!-- Generator: Sketch 3.2.1 (9971) - http://www.bohemiancoding.com/sketch -->
    <title>logo</title>
    <desc>Created with Sketch.</desc>
    <defs></defs>
    <g id="Introduction" stroke="none" stroke-width="1" fill="none" fill-rule="evenodd" sketch:type="MSPage">
        <g id="logo" sketch:type="MSArtboardGroup">
            <g id="Imported-Layers-+-Imported-Layers" sketch:type="MSLayerGroup">
                <g id="Imported-Layers" transform="translate(0.000000, 4.000000)" fill="#AFC735" sketch:type="MSShapeGroup">
                    <path d="M270.396575,164.395575 C270.396575,160.649967 266.939041,158.19934 248.89726,156.05948 C248.973973,155.106003 249.013699,154.126572 249.013699,153.11982 C249.013699,152.365098 248.400685,151.753807 247.643836,151.753807 C241.390411,151.753807 236.060274,152.710699 231.706849,154.5555 C230.549315,154.483784 229.376027,154.41685 228.191096,154.354013 C228.897945,151.263408 229.263014,147.915993 229.263014,144.319964 C229.263014,143.565242 228.65,142.953951 227.893151,142.953951 C214.404795,142.953951 204.050685,146.037042 197.118493,152.118533 C196.540411,152.625324 195.99589,153.159435 195.467123,153.70584 C188.500685,153.783703 181.711644,153.998167 175.29863,154.334206 C171.043151,152.630788 165.883562,151.753807 159.878082,151.753807 C159.121233,151.753807 158.508219,152.365098 158.508219,153.11982 C158.508219,153.960601 158.541781,154.778843 158.59589,155.582742 C157.341096,155.709098 156.106164,155.839552 154.913699,155.97752 C136.260959,158.136503 132.725342,160.602157 132.725342,164.395575 C132.725342,164.579987 132.75137,164.758935 132.780137,164.935833 C132.75137,165.112732 132.725342,165.290997 132.725342,165.476092 C132.725342,178.071415 139.670548,189.304824 152.281507,197.10749 C164.694521,204.787899 181.734932,208.847007 201.560959,208.847007 C221.386986,208.847007 238.427397,204.787899 250.840411,197.10749 C263.45137,189.304824 270.396575,178.071415 270.396575,165.476092 C270.396575,165.290997 270.370548,165.112732 270.341781,164.935833 C270.370548,164.758935 270.396575,164.579987 270.396575,164.395575 L270.396575,164.395575 Z M262.076712,165.297144 C258.814384,166.692526 252.631507,168.050343 244.332192,169.149301 C245.712329,167.281961 246.803425,165.164641 247.579452,162.803487 C254.426027,163.604654 259.349315,164.501441 262.076712,165.297144 L262.076712,165.297144 Z M239.445205,155.115565 C241.540411,154.765183 243.804795,154.556866 246.24726,154.501542 C246.230822,154.924324 246.206164,155.340958 246.173973,155.75281 C245.982877,158.210951 245.515068,160.458042 244.786301,162.492036 C243.783562,165.29168 242.279452,167.68152 240.297945,169.641748 C236.715753,170.047454 232.812329,170.403984 228.642466,170.701092 L238.079452,162.808268 C238.360274,162.573314 238.399315,162.164193 238.181507,161.875964 C238.173973,161.866402 238.172603,161.854791 238.164384,161.845912 C237.921918,161.557 237.490411,161.519435 237.199315,161.761219 L237.158904,161.795369 L226.323288,170.856817 C224.646575,170.964049 222.932192,171.061719 221.179452,171.148461 C221.489041,169.565252 221.938356,168.096105 222.522603,166.737605 C223.270548,164.997304 224.245205,163.442781 225.441781,162.071304 C225.733562,161.737314 226.036301,161.412886 226.354795,161.100752 C229.458904,158.053859 233.827397,156.056065 239.445205,155.115565 L239.445205,155.115565 Z M225.123973,158.686324 C225.123288,158.685641 225.122603,158.684958 225.122603,158.684958 C225.130137,158.678127 225.136986,158.67198 225.144521,158.665833 C225.137671,158.672663 225.130822,158.679493 225.123973,158.686324 L225.123973,158.686324 Z M199.617123,153.676471 C205.788356,148.601049 214.79726,145.890196 226.504795,145.692807 C226.421233,148.739699 226.058904,151.474458 225.420548,154.206484 L225.421918,154.206484 L225.356849,154.507007 C225.017123,155.865507 224.594521,157.18849 224.103425,158.450686 C223.000685,161.050892 222.762329,161.22301 222.762329,161.22301 L222.773973,161.218229 C221.837671,162.398464 221.027397,163.662709 220.358904,165.057408 C219.410959,166.288186 218.359589,167.421977 217.195205,168.475856 C215.971233,169.583693 214.634932,170.573369 213.197945,171.46401 C209.440411,171.571242 205.555479,171.626565 201.560959,171.626565 C200.249315,171.626565 198.953425,171.61632 197.665753,171.604709 L214.39863,157.609222 C214.688356,157.366755 214.726712,156.935778 214.483562,156.646866 C214.241096,156.357954 213.809589,156.320389 213.518493,156.562173 L195.560959,171.579438 C193.736301,171.553484 191.941781,171.513869 190.171918,171.464693 C190.753425,167.348895 191.962329,163.71052 193.778767,160.558444 C195.3,157.91999 197.24863,155.623039 199.617123,153.676471 L199.617123,153.676471 Z M190.589726,160.615134 C189.544521,162.710598 188.726027,164.979546 188.140411,167.421294 C187.278082,164.920124 186.039726,162.703085 184.440411,160.781105 C186.434932,160.71417 188.484932,160.658846 190.589726,160.615134 L190.589726,160.615134 Z M166.537671,154.88949 C172.780822,155.69134 177.603425,157.699379 180.976712,160.908827 C183.771233,163.567771 185.573973,167.049056 186.379452,171.342435 C184.730137,171.280281 183.113014,171.207882 181.522603,171.127971 L170.322603,161.761219 C170.032877,161.519435 169.600685,161.557 169.356849,161.845912 C169.114384,162.134824 169.15274,162.565801 169.442466,162.808268 L179.243151,171.004346 C175.189726,170.774173 171.34589,170.48731 167.763699,170.151954 C165.413699,168.009363 163.678767,165.308072 162.593151,162.078134 C161.906849,160.034578 161.480137,157.779974 161.322603,155.32115 C161.305479,155.049314 161.285616,154.778843 161.274658,154.501542 C163.130822,154.543889 164.881507,154.676392 166.537671,154.88949 L166.537671,154.88949 Z M159.803425,162.343141 C160.665753,165.141418 161.950685,167.611853 163.637671,169.732588 C152.894521,168.554402 144.914384,166.952069 141.04589,165.297144 C144.309589,164.34435 150.718493,163.248124 159.803425,162.343141 L159.803425,162.343141 Z M254.689041,185.520284 C254.439041,185.766167 254.184247,186.01 253.923288,186.251101 C253.581507,186.568016 253.234247,186.882882 252.874658,187.192284 C252.678082,187.36167 252.473288,187.526958 252.271233,187.694294 C251.956164,187.95452 251.636301,188.213379 251.308219,188.468824 C251.09726,188.632745 250.884247,188.795301 250.667808,188.957173 C250.313699,189.22218 249.95,189.483771 249.581507,189.742631 C249.384247,189.881281 249.189726,190.021297 248.988356,190.157899 C248.449315,190.524673 247.897945,190.885301 247.330137,191.238415 C247.29589,191.259588 247.264384,191.282127 247.230137,191.303301 C237.317123,197.436699 223.987671,201.039559 208.384247,201.844141 C206.154795,201.958886 203.879452,202.017624 201.560959,202.017624 C199.242466,202.017624 196.967123,201.958886 194.737671,201.844141 C193.762329,201.794281 192.79589,201.73281 191.839041,201.660412 C177.481507,200.579212 165.184932,197.05285 155.892466,191.303984 C155.870548,191.289641 155.849315,191.275297 155.827397,191.261637 C155.245205,190.900327 154.681507,190.53082 154.129452,190.15585 C153.932877,190.021297 153.742466,189.884696 153.549315,189.748778 C153.176712,189.487186 152.808904,189.222863 152.450685,188.954441 C152.236986,188.794618 152.025342,188.633428 151.817123,188.471556 C151.486986,188.214745 151.165753,187.95452 150.84863,187.692245 C150.647945,187.526275 150.443836,187.36167 150.247945,187.192967 C149.890411,186.885614 149.54589,186.572797 149.206164,186.258614 C148.936986,186.009317 148.674658,185.757288 148.416438,185.503892 C148.19726,185.288745 147.976027,185.074281 147.764384,184.855719 C147.767808,184.857085 147.771233,184.857085 147.773973,184.858451 C160.677397,188.340418 184.05411,189.723507 201.560959,189.723507 C218.262329,189.723507 233.971918,188.682605 245.796575,186.792725 C249.553425,186.192363 252.729452,185.541458 255.367808,184.838644 C255.371233,184.837278 255.374658,184.836595 255.378082,184.835912 C255.154795,185.066768 254.921233,185.292843 254.689041,185.520284 L254.689041,185.520284 Z M262.700685,172.12516 C262.691096,172.159993 262.682877,172.19551 262.673973,172.231026 C262.537671,172.749428 262.384247,173.262366 262.216438,173.771206 C262.193151,173.843605 262.167808,173.914637 262.143151,173.986353 C261.971918,174.491095 261.789041,174.992422 261.586986,175.487601 C261.531507,175.622837 261.477397,175.758072 261.419863,175.892624 C261.269178,176.245739 261.109589,176.596804 260.943151,176.944454 C260.871233,177.094033 260.79589,177.242245 260.721233,177.390458 C260.547945,177.735376 260.372603,178.080294 260.183562,178.419748 C260.128082,178.52015 260.066438,178.61782 260.009589,178.716856 C259.631507,179.375958 259.223288,180.024814 258.786301,180.664108 C258.681507,180.817101 258.582192,180.971461 258.473973,181.123088 C258.282192,181.393559 258.077397,181.659248 257.874658,181.924938 C255.186301,182.859291 251.210959,183.852382 245.471233,184.768977 C233.750685,186.642464 218.156164,187.674487 201.560959,187.674487 C184.965753,187.674487 169.371233,186.642464 157.650685,184.768977 C151.911644,183.852382 147.936301,182.859291 145.247945,181.925621 C145.043151,181.656516 144.836986,181.389461 144.643151,181.116258 C144.54863,180.983072 144.460959,180.846471 144.368493,180.711918 C143.904795,180.036425 143.471233,179.350003 143.073973,178.651288 C143.031507,178.57684 142.985616,178.503758 142.943836,178.42931 C142.74863,178.078245 142.567123,177.723082 142.389041,177.367235 C142.320548,177.231317 142.25137,177.095399 142.186301,176.958797 C142.014384,176.600902 141.850685,176.240275 141.69589,175.876915 C141.643836,175.756706 141.595205,175.634448 141.54589,175.513556 C141.343836,175.020425 141.161644,174.520464 140.989726,174.017771 C140.963014,173.939225 140.935616,173.859997 140.908904,173.780768 C140.742466,173.277392 140.590411,172.769918 140.455479,172.25698 C140.443151,172.209853 140.432192,172.162042 140.419863,172.114915 C140.365753,171.905915 140.326027,171.6935 140.277397,171.483134 C147.941096,174.241114 160.772603,175.890575 173.740411,176.803072 C176.823973,177.020268 179.913014,177.194435 182.945205,177.333085 C184.10137,177.386359 185.25137,177.399337 186.386986,177.442366 C186.595205,177.449879 186.80137,177.429389 187.008904,177.429389 L187.025342,177.429389 C187.493151,177.429389 187.960959,177.498373 188.423288,177.513399 C188.499315,177.516131 188.573288,177.535255 188.649315,177.537987 C188.778082,177.542085 188.905479,177.554379 189.034932,177.558477 C189.167123,177.562575 189.29863,177.570771 189.430822,177.574869 C189.781507,177.585797 190.134247,177.598775 190.481507,177.60902 C193.293836,177.686882 195.989726,177.734693 198.515068,177.755183 C199.560274,177.764062 200.580822,177.770209 201.560959,177.770209 C202.804795,177.770209 204.108219,177.762696 205.453425,177.748353 C209.329452,177.708056 213.588356,177.605605 218.014384,177.426657 C218.19589,177.419144 218.376712,177.412314 218.558904,177.404801 C219.197945,177.378163 219.840411,177.349477 220.484932,177.319425 C220.571233,177.315327 220.656164,177.311912 220.741781,177.307814 C223.171233,177.193069 225.634247,177.054418 228.1,176.889814 C230.374658,176.738186 232.649315,176.56402 234.899315,176.365948 C245.89863,175.396761 256.272603,173.848386 262.845205,171.483817 C262.79589,171.697598 262.754795,171.912745 262.700685,172.12516 L262.700685,172.12516 Z" id="Fill-1"></path>
                    <path d="M36.4636986,60.7288431 L42.3636986,83.0665719 C44.2705479,90.286634 39.9068493,97.5852418 32.7794521,99.4573627 C25.5390411,101.358853 18.1363014,97.1501667 16.2294521,89.9301046 L15.2164384,86.0943399 C14.9486301,85.0787092 15.5315068,84.0808366 16.55,83.813781 L20.1705479,82.8630359 C21.1883562,82.5959804 22.1890411,83.177219 22.4575342,84.1921667 L23.469863,88.0286144 C24.3047945,91.1875196 27.5917808,93.0992549 30.8726027,92.2373007 C34.040411,91.4047157 35.9575342,88.1269673 35.1232877,84.9680621 L29.2232877,62.6303333 C28.3890411,59.4714281 25.1013699,57.5596928 21.9335616,58.3922778 L10.619863,61.3633562 C9.60205479,61.6304118 8.57191781,60.9364771 8.33356164,60.0335425 L0.317808219,29.6861961 C0.0801369863,28.7832614 0.632876712,27.6726928 1.65205479,27.4056373 L24.1657534,21.4928497 C25.1835616,21.2251111 26.2136986,21.9197288 26.4527397,22.8226634 L27.4054795,26.4323529 C27.6739726,27.4473007 27.090411,28.4451732 26.0726027,28.7129118 L8.9890411,33.1995817 L14.1438356,52.7164935 L20.0267123,51.1722157 C27.1541096,49.2994118 34.5568493,53.508781 36.4636986,60.7288431" id="Fill-2"></path>
                    <path d="M62.2623288,72.8836275 L64.5212329,84.2126569 L81.8493151,80.777134 C82.7671233,80.5947712 83.8678082,81.3283203 84.05,82.244232 L84.7808219,85.9058301 C84.9856164,86.9358039 84.2273973,87.9179673 83.3089041,88.1003301 L60.4732877,92.6279804 C59.440411,92.8328824 58.4773973,92.1908562 58.2726027,91.1615654 L54.9178082,74.3397974 C54.2335616,70.9063235 54.2335616,70.9063235 55.6383562,66.5835752 L66.460274,34.1052484 C66.690411,33.4645882 66.690411,33.4645882 66.439726,32.2051242 L65.2753425,26.3695163 C64.6136986,23.0507876 61.45,20.9423464 58.1219178,21.6021307 C54.909589,22.2393758 52.7945205,25.394866 53.4554795,28.7129118 L54.2315068,32.603317 C54.4369863,33.6332908 53.7938356,34.593598 52.7609589,34.7985 L49.0883562,35.526585 C48.0561644,35.7308039 47.0924658,35.0894608 46.8876712,34.0594869 L46.1116438,30.1690817 C44.6513699,22.8452026 49.4321918,15.7118824 56.6616438,14.2782516 C64.0061644,12.8220817 71.159589,17.5901503 72.619863,24.9133464 L73.7835616,30.7489542 C74.4452055,34.068366 74.4452055,34.068366 72.9486301,38.5283987 L62.2184932,70.8701242 C61.9883562,71.5101013 61.9883562,71.5101013 62.2623288,72.8836275" id="Fill-3"></path>
                    <path d="M135.666438,20.3037353 L135.276712,16.3559575 C134.956164,13.1048464 132.015068,10.6972484 128.75411,11.0168954 C125.493836,11.3365425 123.079452,14.2693725 123.400685,17.5211667 L123.984247,23.4428333 C124.121918,24.8361667 124.121918,24.8361667 124.528082,25.3825719 L144.204795,53.2287484 C146.806164,56.9600131 146.806164,56.9600131 147.139041,60.3272353 L147.711644,66.1327908 C148.444521,73.563902 142.973973,80.0791013 135.638356,80.7989902 C128.303425,81.5181961 121.663699,76.1914281 120.930822,68.760317 L120.541781,64.8125392 C120.45,63.8829673 121.173288,62.8741667 122.221233,62.7717157 L125.94726,62.4063072 C126.995205,62.3038562 127.902055,63.1521503 127.993836,64.0810392 L128.382877,68.028817 C128.715068,71.3960392 131.656164,73.8036373 134.917123,73.4839902 C138.177397,73.1643431 140.591781,70.2308301 140.259589,66.8636078 L139.686986,61.0580523 C139.560274,59.7808301 139.560274,59.7808301 139.154795,59.2344248 L119.478082,31.3875654 C116.876027,27.6569837 116.876027,27.6569837 116.532192,24.1736503 L115.94863,18.2519837 C115.226712,10.9376667 120.685616,4.3049902 128.021233,3.58578431 C135.356849,2.86589542 142.007534,8.31014052 142.728767,15.6251405 L143.118493,19.5729183 C143.221233,20.6172353 142.486301,21.5106078 141.439041,21.6130588 L137.712329,21.9791503 C136.664384,22.0816013 135.769178,21.3487353 135.666438,20.3037353" id="Fill-4"></path>
                    <path d="M195.568493,13.3855621 L197.111644,75.550085 C197.137671,76.599866 196.339041,77.436549 195.286986,77.4625033 L191.543836,77.5547092 C190.491096,77.5806634 189.652055,76.7849608 189.626027,75.7351797 L188.80137,42.4953007 L176.75411,42.7924085 L177.579452,76.0322876 C177.605479,77.0813856 176.806849,77.9187516 175.75411,77.9447059 L172.011644,78.0369118 C171.076027,78.060134 170.120548,77.2664804 170.093836,76.2173824 L168.55137,14.0528595 C168.365753,6.58828105 174.296575,0.373604575 181.782192,0.188509804 C189.15137,0.00683006536 195.382877,5.92166667 195.568493,13.3855621 L195.568493,13.3855621 Z M188.082877,13.5706569 C187.999315,10.1884085 185.242466,7.57249346 181.967123,7.65308824 C178.575342,7.73641503 175.952055,10.4855163 176.036301,13.8684477 L176.569178,35.3278301 L188.615753,35.0307222 L188.082877,13.5706569 L188.082877,13.5706569 Z" id="Fill-5"></path>
                    <path d="M239.217808,72.9300719 L239.05411,76.6599706 C239.008219,77.7090686 238.15411,78.4890621 237.102055,78.4433007 L223.309589,77.8408889 C221.205479,77.748683 219.640411,76.0459477 219.732877,73.9470686 L222.892466,2.03126144 C222.933562,1.09827451 223.792466,0.202169935 224.844521,0.247931373 L228.584932,0.411169935 C229.519863,0.452150327 230.414384,1.42543464 230.373288,2.35773856 L227.377397,70.5443301 L237.429452,70.9835033 C238.481507,71.0292647 239.258904,71.997768 239.217808,72.9300719" id="Fill-6"></path>
                    <path d="M294.239726,19.3420621 L287.24863,81.1343464 C287.130822,82.1779804 286.225342,82.8978693 285.178767,82.7803922 L281.458219,82.3617092 C280.412329,82.244232 279.690411,81.3412974 279.808219,80.2969804 L283.546575,47.2565392 L271.571918,45.9096503 L267.833562,78.9507745 C267.715753,79.9937255 266.810274,80.7136144 265.763699,80.5961373 L262.043836,80.1774542 C261.113014,80.0729542 260.275342,79.1563595 260.392466,78.1134085 L267.383562,16.3211242 C268.223288,8.90162418 274.950685,3.553 282.391781,4.39036601 C289.715753,5.2140719 295.079452,11.9225621 294.239726,19.3420621 L294.239726,19.3420621 Z M286.799315,18.5053791 C287.179452,15.1436209 284.807534,12.1759575 281.552055,11.809866 C278.180137,11.4301144 275.204795,13.796049 274.824658,17.1584902 L272.410959,38.4894673 L284.386301,39.8370392 L286.799315,18.5053791 L286.799315,18.5053791 Z" id="Fill-7"></path>
                    <path d="M347.630822,28.2996928 L338.169178,78.0444248 C336.795205,85.2658529 329.799315,90.1165654 322.443151,88.725281 L312.787671,86.8989216 C310.834247,86.529415 309.415753,84.5985556 309.807534,82.5358758 L322.910274,13.6492026 C323.280822,11.701268 325.332192,10.3079346 327.285616,10.6774412 L336.941096,12.5038007 C344.29726,13.895085 349.026027,20.9635196 347.630822,28.2996928 L347.630822,28.2996928 Z M340.273973,26.9077255 C340.906849,23.5842157 338.764384,20.4478497 335.54589,19.8392908 L329.568493,18.708232 L317.861644,80.259415 L323.838356,81.3897908 C327.056849,81.9990327 330.202055,79.8625882 330.813014,76.6524575 L340.273973,26.9077255 L340.273973,26.9077255 Z" id="Fill-8"></path>
                    <path d="M390.629452,42.638049 L391.655479,38.8050163 C392.499315,35.6488431 390.593151,32.3649477 387.428082,31.5228007 C384.263014,30.6806536 380.969178,32.5814608 380.125342,35.737634 L378.586986,41.4865 C378.224658,42.8395359 378.224658,42.8395359 378.413014,43.4924902 L387.029452,76.4557516 C388.152055,80.8590948 388.152055,80.8590948 387.276712,84.1286471 L385.769178,89.764817 C383.839041,96.978732 376.422603,101.163513 369.300685,99.2695359 C362.179452,97.3741928 357.839726,90.0612418 359.769863,82.8473268 L360.795205,79.0142941 C361.036986,78.1127255 362.069178,77.4208399 363.086301,77.6919935 L366.703425,78.6543497 C367.721233,78.9255033 368.271233,80.0374379 368.030137,80.9396895 L367.004795,84.7720392 C366.129452,88.0409085 368.036301,91.3254869 371.20137,92.167634 C374.366438,93.009781 377.659589,91.1082908 378.534932,87.8394216 L380.042466,82.2032516 C380.373973,80.9635948 380.373973,80.9635948 380.186301,80.3099575 L371.569863,47.3473791 C370.44726,42.9433529 370.44726,42.9433529 371.352055,39.5617876 L372.890411,33.8129216 C374.790411,26.7110196 382.236986,22.4135425 389.358219,24.3088856 C396.480137,26.2028627 400.789726,33.6285098 398.889726,40.7304118 L397.863699,44.5627614 C397.593151,45.5770261 396.590411,46.1562157 395.573288,45.8850621 L391.955479,44.9227059 C390.938356,44.6522353 390.358219,43.6523137 390.629452,42.638049" id="Fill-9"></path>
                </g>
                <g id="Imported-Layers" transform="translate(1.000000, 0.000000)" fill="#322117" sketch:type="MSShapeGroup">
                    <path d="M269.479451,164.331373 C269.479451,160.586448 266.033304,158.13582 248.05094,155.996644 C248.1274,155.043167 248.166995,154.063052 248.166995,153.056301 C248.166995,152.301578 247.555317,151.690288 246.801643,151.690288 C240.568813,151.690288 235.255547,152.64718 230.91646,154.49198 C229.76342,154.420265 228.593997,154.35333 227.412285,154.290493 C228.116806,151.199889 228.481355,147.852474 228.481355,144.256444 C228.481355,143.501722 227.869678,142.890431 227.116003,142.890431 C213.672069,142.890431 203.351376,145.974206 196.442014,152.055013 C195.865835,152.561804 195.323791,153.095915 194.796765,153.64232 C187.853269,153.720866 181.086587,153.934647 174.69401,154.270686 C170.452545,152.567951 165.309949,151.690288 159.324247,151.690288 C158.570573,151.690288 157.958895,152.301578 157.958895,153.056301 C157.958895,153.897082 157.993029,154.715324 158.046278,155.519222 C156.796298,155.645578 155.565434,155.776033 154.376213,155.914 C135.785585,158.072984 132.261612,160.538637 132.261612,164.331373 C132.261612,164.516467 132.287554,164.695415 132.315544,164.872314 C132.287554,165.049212 132.261612,165.227477 132.261612,165.412572 C132.261612,178.007895 139.183262,189.241304 151.75269,197.043971 C164.125506,204.724379 181.109115,208.78417 200.870532,208.78417 C220.631266,208.78417 237.615557,204.724379 249.987691,197.043971 C262.557118,189.241304 269.479451,178.007895 269.479451,165.412572 C269.479451,165.227477 269.452827,165.049212 269.424837,164.872314 C269.452827,164.695415 269.479451,164.516467 269.479451,164.331373 L269.479451,164.331373 Z M261.186988,165.234307 C257.935403,166.629007 251.772889,167.987507 243.500906,169.085781 C244.876497,167.218441 245.963317,165.101804 246.737472,162.739967 C253.561499,163.541817 258.468573,164.437922 261.186988,165.234307 L261.186988,165.234307 Z M238.630014,155.052046 C240.718319,154.701663 242.975245,154.493346 245.409667,154.438023 C245.393283,154.861487 245.368024,155.277438 245.336621,155.689291 C245.146154,158.147431 244.679887,160.394523 243.95352,162.429199 C242.9534,165.22816 241.454244,167.618 239.479262,169.578912 C235.908868,169.983935 232.018298,170.341147 227.862851,170.636889 L237.268758,162.744748 C237.547973,162.509794 237.586885,162.100673 237.369794,161.812444 C237.362967,161.803565 237.360919,161.791271 237.35341,161.782392 C237.111743,161.49348 236.681657,161.456598 236.39152,161.697699 L236.350559,161.73185 L225.550628,170.793297 C223.88012,170.901212 222.1707,170.998199 220.423732,171.084941 C220.732302,169.501732 221.18082,168.032585 221.76246,166.674085 C222.508624,164.933784 223.480072,163.379261 224.672707,162.008467 C224.962844,161.673794 225.265269,161.350049 225.582031,161.037232 C228.6766,157.991023 233.030707,155.992546 238.630014,155.052046 L238.630014,155.052046 Z M224.355262,158.622121 C224.355262,158.622121 224.35458,158.621438 224.353897,158.620755 C224.361407,158.614608 224.368916,158.608461 224.376425,158.602314 C224.368916,158.609144 224.362772,158.615974 224.355262,158.622121 L224.355262,158.622121 Z M198.932415,153.612951 C205.084007,148.538212 214.063242,145.825993 225.73222,145.629288 C225.648933,148.67618 225.287798,151.411621 224.650861,154.142964 L224.652909,154.142964 L224.587372,154.443487 C224.248765,155.801987 223.827554,157.124971 223.338758,158.387167 C222.23965,160.987373 222.002079,161.15949 222.002079,161.15949 L222.013002,161.154709 C221.080467,162.335627 220.272861,163.599873 219.606569,164.994572 C218.661746,166.224667 217.613156,167.358458 216.45329,168.412337 C215.232666,169.520173 213.900765,170.50985 212.468511,171.40049 C208.724034,171.507722 204.851897,171.563046 200.870532,171.563046 C199.563208,171.563046 198.271585,171.553484 196.987472,171.54119 L213.665925,157.545703 C213.954696,157.303235 213.992244,156.872258 213.750576,156.583346 C213.508226,156.294435 213.078141,156.256869 212.788686,156.498654 L194.890292,171.515918 C193.071643,171.489964 191.28235,171.45035 189.518316,171.401173 C190.097907,167.285376 191.30283,163.647 193.113969,160.494925 C194.630192,157.856471 196.572405,155.560203 198.932415,153.612951 L198.932415,153.612951 Z M189.935431,160.551614 C188.892985,162.647078 188.07787,164.916026 187.494182,167.357775 C186.634693,164.856605 185.400415,162.639565 183.806367,160.717585 C185.793636,160.65065 187.837568,160.595327 189.935431,160.551614 L189.935431,160.551614 Z M165.961904,154.825971 C172.185177,155.62782 176.991214,157.635859 180.354075,160.845307 C183.139393,163.504252 184.936196,166.985536 185.739022,171.278915 C184.095139,171.217444 182.483341,171.144363 180.897485,171.064451 L169.73437,161.697699 C169.445599,161.456598 169.015513,161.49348 168.77248,161.782392 C168.530813,162.071304 168.56836,162.502281 168.857132,162.744748 L178.62554,170.94151 C174.586148,170.710654 170.754971,170.423791 167.184576,170.089118 C164.841633,167.945843 163.112415,165.244552 162.031057,162.014614 C161.346333,159.971059 160.921708,157.716454 160.76401,155.257631 C160.746943,154.985794 160.727146,154.715324 160.716223,154.438023 C162.566957,154.480369 164.311877,154.612873 165.961904,154.825971 L165.961904,154.825971 Z M159.250518,162.279621 C160.109324,165.077899 161.390707,167.548333 163.072137,169.669069 C152.364367,168.490882 144.410511,166.888549 140.554075,165.234307 C143.807708,164.28083 150.195506,163.184605 159.250518,162.279621 L159.250518,162.279621 Z M253.823647,185.456765 C253.573787,185.702647 253.320515,185.94648 253.060415,186.187582 C252.719077,186.504497 252.373643,186.819363 252.014556,187.129448 C251.81931,187.29815 251.614508,187.463438 251.413801,187.630775 C251.099087,187.891 250.780961,188.149859 250.453276,188.405304 C250.243695,188.569225 250.0307,188.731781 249.815657,188.893654 C249.462031,189.15866 249.09953,189.420252 248.732933,189.679111 C248.53564,189.817761 248.342443,189.957778 248.141736,190.095062 C247.60447,190.461154 247.054916,190.821781 246.488978,191.174895 C246.454844,191.196069 246.422758,191.218608 246.388624,191.239781 C236.50894,197.37318 223.223386,200.976039 207.671348,201.780621 C205.449238,201.896049 203.181389,201.954105 200.870532,201.954105 C198.559674,201.954105 196.291142,201.896049 194.069715,201.780621 C193.097585,201.730761 192.134329,201.669291 191.180631,201.597575 C176.869698,200.515693 164.614302,196.990013 155.352439,191.240464 C155.329911,191.226804 155.309431,191.211778 155.286902,191.198118 C154.70731,190.836807 154.144786,190.467301 153.595232,190.09233 C153.398621,189.958461 153.20952,189.821176 153.017005,189.685258 C152.644947,189.423667 152.279033,189.159343 151.92131,188.890922 C151.708316,188.731098 151.498051,188.569908 151.289835,188.407353 C150.961468,188.151225 150.640611,187.891 150.325214,187.628725 C150.124508,187.462755 149.92107,187.29815 149.726508,187.129448 C149.370151,186.822095 149.026765,186.509278 148.688158,186.195095 C148.419866,185.945797 148.157719,185.693768 147.90035,185.440373 C147.681894,185.225225 147.461389,185.010761 147.251125,184.792199 C147.254539,184.793565 147.257269,184.794248 147.260683,184.794931 C160.121612,188.276899 183.420655,189.659987 200.870532,189.659987 C217.516216,189.659987 233.174751,188.619085 244.960467,186.729889 C248.704261,186.128843 251.870511,185.477938 254.499496,184.775124 C254.502909,184.773758 254.506322,184.773075 254.509736,184.772392 C254.287866,185.003248 254.054391,185.229324 253.823647,185.456765 L253.823647,185.456765 Z M261.808223,172.061641 C261.799348,172.097157 261.791156,172.132673 261.781599,172.167507 C261.645746,172.685908 261.493509,173.198846 261.326254,173.707686 C261.30236,173.780085 261.277101,173.851118 261.253208,173.922833 C261.082539,174.427575 260.900264,174.928902 260.698192,175.424082 C260.643578,175.559317 260.589647,175.694552 260.532302,175.829105 C260.381431,176.182219 260.22305,176.533284 260.056477,176.881618 C259.985479,177.030513 259.910384,177.178725 259.835973,177.326938 C259.663256,177.672539 259.488491,178.016775 259.299389,178.356912 C259.244093,178.456631 259.183334,178.554301 259.126672,178.65402 C258.749835,179.313121 258.342961,179.961977 257.906731,180.600588 C257.802964,180.753582 257.703293,180.907941 257.596113,181.059569 C257.404281,181.330039 257.200844,181.595729 256.998772,181.861418 C254.318587,182.795771 250.357019,183.788863 244.636196,184.706141 C232.954247,186.579627 217.411084,187.610967 200.870532,187.610967 C184.329297,187.610967 168.786816,186.579627 157.104185,184.706141 C151.384045,183.788863 147.422477,182.795771 144.742292,181.862101 C144.538854,181.59368 144.333369,181.325258 144.140172,181.053422 C144.04528,180.919552 143.95858,180.782951 143.866419,180.648399 C143.404247,179.972905 142.972113,179.286484 142.576161,178.588451 C142.533835,178.514003 142.487413,178.440922 142.44577,178.365791 C142.25189,178.015408 142.070981,177.660245 141.892803,177.303716 C141.825218,177.167797 141.756268,177.032562 141.690731,176.895278 C141.519379,176.537382 141.35622,176.176755 141.201935,175.813395 C141.150734,175.693186 141.102264,175.571611 141.053111,175.450036 C140.851722,174.956905 140.669448,174.457627 140.498779,173.954935 C140.472154,173.875706 140.444165,173.79716 140.418223,173.717931 C140.252333,173.213873 140.100779,172.706399 139.966292,172.194144 C139.953321,172.146333 139.942398,172.099206 139.930792,172.051395 C139.876861,171.843078 139.836583,171.630663 139.788113,171.420297 C147.426573,174.177595 160.215822,175.827056 173.140923,176.739552 C176.215012,176.956748 179.29388,177.130915 182.315403,177.269565 C183.468443,177.32284 184.614655,177.3365 185.745849,177.378846 C185.954065,177.386359 186.158868,177.365869 186.366401,177.365869 L186.382103,177.365869 C186.84837,177.365869 187.314638,177.434853 187.776127,177.449879 C187.851221,177.452611 187.925633,177.472418 188.000727,177.474467 C188.129753,177.478565 188.256731,177.490859 188.385074,177.494958 C188.517513,177.499056 188.648587,177.507252 188.780343,177.51135 C189.129873,177.522278 189.480768,177.535938 189.827568,177.5455 C192.630635,177.623363 195.316964,177.671173 197.834672,177.692346 C198.875753,177.701225 199.89294,177.706007 200.870532,177.706007 C202.109588,177.706007 203.40872,177.699176 204.749496,177.685516 C208.613441,177.644536 212.857636,177.542085 217.269087,177.363137 C217.450679,177.355624 217.630223,177.348794 217.811815,177.341281 C218.448751,177.314644 219.089101,177.285958 219.732182,177.255905 C219.817516,177.251807 219.902851,177.248392 219.988185,177.244294 C222.408954,177.129549 224.863856,176.990899 227.321489,176.826294 C229.589338,176.674667 231.855822,176.5005 234.098412,176.302428 C245.061503,175.333242 255.40131,173.784866 261.952268,171.420297 C261.903115,171.633395 261.862837,171.849908 261.808223,172.061641 L261.808223,172.061641 Z" id="Fill-1"></path>
                    <path d="M36.3163053,60.6653235 L42.1975575,83.0030523 C44.0981269,90.2231144 39.7487993,97.5217222 32.6441921,99.3938431 C25.4276261,101.296016 18.0492659,97.0866471 16.1486964,89.866585 L15.1397015,86.0308203 C14.8720926,85.0158725 15.4537324,84.018 16.4681887,83.7502614 L20.076813,82.7995163 C21.091952,82.5324608 22.0893413,83.1136993 22.3562676,84.1293301 L23.3659451,87.9650948 C24.1974443,91.124 27.4736055,93.0357353 30.7436226,92.173781 C33.9009983,91.3411961 35.8118079,88.0641307 34.9803087,84.9045425 L29.0997393,62.5668137 C28.2682401,59.4079085 24.9913962,57.4968562 21.8340206,58.3287582 L10.5582642,61.2998366 C9.54380789,61.5675752 8.51706346,60.8729575 8.27880961,59.9707059 L0.290137221,29.6226765 C0.0525660377,28.7204248 0.604168096,27.6098562 1.61930703,27.3421176 L24.0588611,21.4293301 C25.074,21.1615915 26.1000617,21.8562092 26.3383156,22.7591438 L27.2886003,26.3688333 C27.5555266,27.3844641 26.9745695,28.3823366 25.9594305,28.6493922 L8.93213036,33.1367451 L14.0699485,52.6536569 L19.9334511,51.1086961 C27.0380583,49.2365752 34.4157358,53.4452614 36.3163053,60.6653235" id="Fill-2"></path>
                    <path d="M62.0299726,72.8201078 L64.2814374,84.1491373 L81.5524528,80.7136144 C82.4679211,80.5312516 83.5642985,81.2648007 83.7465729,82.1807124 L84.4743053,85.8429935 C84.6784254,86.8722843 83.9233859,87.8551307 83.0079177,88.0368105 L60.2468233,92.5644608 C59.2173482,92.7693627 58.2581887,92.1280196 58.0533859,91.0980458 L54.7103225,74.2762778 C54.0283293,70.8434869 54.0283293,70.8434869 55.4278148,66.5200556 L66.2140926,34.0417288 C66.4434717,33.4010686 66.4434717,33.4010686 66.1936123,32.1416046 L65.0337461,26.3066797 C64.3742813,22.987268 61.2210017,20.8788268 57.9031973,21.5386111 C54.7014477,22.1758562 52.5933448,25.3313464 53.2528096,28.6493922 L54.0262813,32.5404804 C54.2304014,33.5697712 53.5893688,34.5307614 52.5598937,34.7349804 L48.9000686,35.4630654 C47.8705935,35.6679673 46.9107513,35.0259412 46.7059485,33.9959673 L45.9324768,30.1055621 C44.477012,22.781683 49.2427719,15.6483627 56.4484151,14.215415 C63.7680652,12.7592451 70.8986141,17.5266307 72.3533962,24.8505098 L73.5139451,30.6861176 C74.1727273,34.0048464 74.1727273,34.0048464 72.6817633,38.4648791 L61.986964,70.8066046 C61.7575849,71.4465817 61.7575849,71.4465817 62.0299726,72.8201078" id="Fill-3"></path>
                    <path d="M135.19234,20.2408987 L134.80458,16.2924379 C134.484405,13.0420098 131.552995,10.6337288 128.302775,10.9533758 C125.053921,11.2737059 122.646806,14.2065359 122.966981,17.4576471 L123.549304,23.3793137 C123.686521,24.7726471 123.686521,24.7726471 124.091348,25.3190523 L143.702576,53.1659118 C146.296062,56.8971765 146.296062,56.8971765 146.62716,60.2637157 L147.197877,66.0692712 C147.929022,73.5003824 142.475808,80.0155817 135.16435,80.7354706 C127.853575,81.4553595 121.236398,76.1279085 120.505935,68.6967974 L120.117492,64.7490196 C120.026014,63.8194477 120.746919,62.8113301 121.791413,62.7081961 L125.505852,62.3427876 C126.549664,62.2403366 127.453527,63.0886307 127.545005,64.0175196 L127.932765,67.9659804 C128.264545,71.3325196 131.195955,73.7408007 134.445492,73.4204706 C137.695029,73.1008235 140.102144,70.1673105 139.770364,66.8000882 L139.199647,60.9952157 C139.074034,59.7179935 139.074034,59.7179935 138.669208,59.1715882 L119.057297,31.3240458 C116.464494,27.5934641 116.464494,27.5934641 116.121791,24.1108137 L115.539468,18.1891471 C114.819928,10.8741471 120.260854,4.24215359 127.572312,3.52226471 C134.88377,2.80237582 141.512552,8.24662092 142.232093,15.5616209 L142.619852,19.5093987 C142.722937,20.5543987 141.989743,21.4470882 140.945931,21.5502222 L137.232175,21.9156307 C136.186998,22.0180817 135.295424,21.2852157 135.19234,20.2408987" id="Fill-4"></path>
                    <path d="M194.897118,13.3227255 L196.435187,75.4865654 C196.461129,76.5363464 195.665129,77.3730294 194.616539,77.3989837 L190.885715,77.4911895 C189.836443,77.5171438 189.000847,76.7214412 188.974223,75.6716601 L188.152281,42.431781 L176.145379,42.7295719 L176.968003,75.968768 C176.993945,77.018549 176.197945,77.855232 175.148672,77.8811863 L171.418532,77.9733922 C170.485314,77.9966144 169.532981,77.2029608 169.507039,76.1538627 L167.968971,13.9893399 C167.783966,6.52544444 173.695938,0.310084967 181.15622,0.125673203 C188.501129,-0.0566895425 194.712796,5.85814706 194.897118,13.3227255 L194.897118,13.3227255 Z M187.436837,13.5071373 C187.353551,10.1248889 184.605098,7.50897386 181.341225,7.58956863 C177.960614,7.67289542 175.345966,10.4226797 175.429935,13.8049281 L175.960374,35.2649935 L187.967959,34.9672026 L187.436837,13.5071373 L187.436837,13.5071373 Z" id="Fill-5"></path>
                    <path d="M238.403365,72.8665523 L238.240206,76.596451 C238.193784,77.645549 237.342487,78.4255425 236.293897,78.379781 L222.546854,77.7773693 C220.449674,77.6851634 218.890443,75.9824281 218.982604,73.884232 L222.131787,1.96774183 C222.172065,1.0347549 223.028141,0.138650327 224.076731,0.184411765 L227.804823,0.348333333 C228.737358,0.388630719 229.62825,1.36191503 229.587973,2.29421895 L226.601949,70.4808105 L236.620216,70.9199837 C237.669489,70.9657451 238.443643,71.9342484 238.403365,72.8665523" id="Fill-6"></path>
                    <path d="M293.244079,19.2785425 L286.276007,81.0708268 C286.158587,82.1144608 285.256089,82.8343497 284.212278,82.7168725 L280.504666,82.2981895 C279.461537,82.1807124 278.742679,81.2777778 278.859417,80.2341438 L282.585461,47.1937026 L270.65024,45.8461307 L266.924196,78.8872549 C266.806775,79.9302059 265.904278,80.6500948 264.861832,80.5326176 L261.153537,80.1139346 C260.226463,80.0094346 259.390868,79.0935229 259.508288,78.0498889 L266.47636,16.2582876 C267.312638,8.83810458 274.018563,3.48948039 281.43447,4.32684641 C288.734322,5.15055229 294.080357,11.8590425 293.244079,19.2785425 L293.244079,19.2785425 Z M285.827489,18.4418595 C286.206374,15.0801013 283.842268,12.1124379 280.597509,11.7463464 C277.237379,11.3665948 274.271835,13.7325294 273.892268,17.0949706 L271.487201,38.4266307 L283.422422,39.7735196 L285.827489,18.4418595 L285.827489,18.4418595 Z" id="Fill-7"></path>
                    <path d="M346.458659,28.2361732 L337.028175,77.9809052 C335.65941,85.2023333 328.686559,90.0537288 321.354621,88.6617614 L311.73094,86.836085 C309.783266,86.4658954 308.369444,84.5350359 308.759935,82.4723562 L321.819523,13.585683 C322.188851,11.6377484 324.233465,10.244415 326.181139,10.6139216 L335.80482,12.440281 C343.136758,13.8315654 347.849269,20.9 346.458659,28.2361732 L346.458659,28.2361732 Z M339.12672,26.8442059 C339.757513,23.5206961 337.622103,20.3850131 334.413527,19.7757712 L328.456497,18.6453954 L316.78752,80.1958954 L322.745232,81.3262712 C325.953125,81.9355131 329.087973,79.7990686 329.696237,76.5896209 L339.12672,26.8442059 L339.12672,26.8442059 Z" id="Fill-8"></path>
                    <path d="M389.315681,42.5745294 L390.338329,38.7414967 C391.180069,35.5860065 389.280182,32.3014281 386.124854,31.4599641 C382.970209,30.617134 379.687904,32.5179412 378.846165,35.6741144 L377.312875,41.4229804 C376.952422,42.7760163 376.952422,42.7760163 377.139475,43.4296536 L385.727537,76.392232 C386.846443,80.7962582 386.846443,80.7962582 385.974666,84.0651275 L384.472096,89.7012974 C382.547633,96.9152124 375.155619,101.099993 368.057839,99.2060163 C360.959376,97.3106732 356.633942,89.9977222 358.558405,82.7838072 L359.58037,78.9514575 C359.820672,78.0492059 360.849465,77.3580033 361.863238,77.6284739 L365.469132,78.5908301 C366.482906,78.8619837 367.031777,79.9746013 366.790792,80.8761699 L365.768827,84.7085196 C364.89705,87.9773889 366.796937,91.2619673 369.951581,92.1041144 C373.106226,92.9462614 376.389214,91.0454542 377.260991,87.776585 L378.763561,82.139732 C379.094659,80.9000752 379.094659,80.9000752 378.906923,80.2464379 L370.318861,47.2838595 C369.200638,42.8798333 369.200638,42.8798333 370.102453,39.498268 L371.635743,33.749402 C373.528803,26.6475 380.950854,22.3500229 388.049317,24.245366 C395.147098,26.1393431 399.442494,33.5649902 397.549434,40.6668922 L396.526786,44.4992418 C396.256446,45.5135065 395.257009,46.0926961 394.243235,45.8222255 L390.638024,44.8598693 C389.623568,44.5887157 389.046024,43.5887941 389.315681,42.5745294" id="Fill-9"></path>
                </g>
            </g>
        </g>
    </g>
</svg>