<?xml version="1.0" encoding="UTF-8" standalone="no"?>
<svg width="230px" height="230px" viewBox="0 0 230 230" version="1.1" xmlns="http://www.w3.org/2000/svg" xmlns:xlink="http://www.w3.org/1999/xlink" xmlns:sketch="http://www.bohemiancoding.com/sketch/ns">
    <!-- Generator: Sketch 3.2.2 (9983) - http://www.bohemiancoding.com/sketch -->
    <title>logo</title>
    <desc>Created with Sketch.</desc>
    <defs></defs>
    <g id="Introduction" stroke="none" stroke-width="1" fill="none" fill-rule="evenodd" sketch:type="MSPage">
        <g id="logo" sketch:type="MSArtboardGroup" fill="#000000">
            <g id="Imported-Layers" sketch:type="MSLayerGroup">
                <path d="M122.85684,188.405 C120.750996,188.037 119.377965,188.988 118.645152,189.54 C117.913333,190.091 118.106494,189.836 118.462944,189.233 C118.950823,188.405 120.69026,186.535 122.887706,184.972 C125.086147,183.408 131.280216,183.439 135.126494,182.244 C138.971775,181.048 140.437403,176.542 140.620606,175.623 C140.802814,174.703 140.528009,175.071 140.253203,175.347 C139.979394,175.623 138.880173,176.267 137.598745,176.726 C136.31632,177.186 136.133117,176.634 129.540779,177.554 C122.948442,178.474 118.980693,186.658 117.852597,188.681 C117.852597,188.681 117.76,188.926 117.607662,189.172 C117.455325,189.417 117.332857,189.325 117.363723,189.172 C117.394589,189.019 117.394589,188.65 117.546926,187.792 C117.699264,186.934 118.30961,185.003 118.919957,183.378 C119.530303,181.754 119.652771,180.712 119.469567,179.362 C119.286364,178.014 117.790866,177.155 117.48619,176.757 C117.180519,176.359 116.96645,175.93 116.844978,175.654 C116.722511,175.378 116.600043,175.408 116.38697,175.715 C116.1729,176.022 115.900087,177.1 116.264502,178.933 C116.661775,180.926 117.028182,181.876 116.96645,183.562 C116.905714,185.248 116.447706,187.302 116.447706,188.497 C116.447706,189.693 116.722511,191.042 116.753377,191.195 C116.784242,191.348 116.96645,191.747 117.088918,191.747 C117.21039,191.747 117.76,191.685 117.974069,191.685 C118.188139,191.685 118.370346,191.624 118.55355,191.164 C118.736753,190.704 119.286364,189.968 120.750996,189.784 C122.216623,189.601 124.872078,191.348 126.611515,191.532 C128.351948,191.716 129.26697,190.612 129.26697,190.612 C129.26697,190.612 128.53316,190.612 126.977922,190.06 C125.420693,189.509 124.962684,188.773 122.85684,188.405" id="Fill-1" sketch:type="MSShapeGroup"></path>
                <path d="M114.147706,187.59 C113.8271,186.045 113.303377,184.244 113.491558,182.293 C113.678745,180.341 114.011299,179.587 114.032208,178.07 C114.054113,176.553 113.561255,175.81 113.405931,175.508 C113.24961,175.207 113.042511,175.25 112.85632,175.5 C112.669134,175.751 112.429177,176.552 111.850693,176.981 C111.272208,177.409 110.737532,177.93 110.678788,178.895 C110.619048,179.86 110.495584,180.479 111.203506,182.19 C111.911429,183.902 112.550649,185.59 112.964848,187.021 C113.380043,188.453 113.348182,189.073 113.3671,189.326 C113.387013,189.579 113.320303,189.394 113.162987,189.185 C113.006667,188.976 110.448788,185.26 108.377792,182.908 C106.304805,180.556 103.871385,177.877 98.9776623,177.438 C94.0859307,176.999 91.8008658,176.69 90.8689177,176.24 C89.935974,175.79 89.6870563,175.625 89.5506494,175.508 C89.4162338,175.391 89.0727273,175.34 89.1364502,175.732 C89.1991775,176.124 90.1609957,179.288 92.7865801,181.349 C95.4131602,183.41 99.4784848,184.044 102.540173,184.479 C105.601861,184.914 108.775065,185.512 110.758442,187.61 C112.74381,189.708 112.537706,189.705 112.672121,189.937 C112.805541,190.169 112.713939,190.236 112.532727,190.027 C112.353506,189.817 111.084026,188.902 109.234069,188.599 C107.384113,188.297 105.911515,188.804 104.711732,189.477 C103.511948,190.149 102.865758,190.485 102.359957,190.615 C101.855152,190.746 101.624156,190.857 102.078182,191.163 C102.531212,191.468 103.37355,191.803 104.769481,191.823 C106.235108,191.844 107.133203,191.42 108.216494,190.93 C109.299784,190.44 109.852381,190.172 110.744502,190.231 C111.636623,190.29 112.314675,190.92 112.53671,191.314 C112.760736,191.708 112.942944,191.78 113.171948,191.76 C113.400952,191.741 113.536364,191.903 113.858961,191.724 C114.182554,191.545 114.296061,191.593 114.348831,191.11 C114.401602,190.629 114.469307,189.135 114.147706,187.59" id="Fill-2" sketch:type="MSShapeGroup"></path>
                <path d="M114.904416,229.935 C51.7858442,229.935 0.434112554,178.361 0.434112554,114.968 C0.434112554,51.574 51.7858442,0 114.904416,0 C178.022987,0 229.373723,51.574 229.373723,114.968 C229.373723,178.361 178.022987,229.935 114.904416,229.935 L114.904416,229.935 Z M114.904416,10 C57.2749784,10 10.3908225,57.088 10.3908225,114.968 C10.3908225,172.847 57.2749784,219.935 114.904416,219.935 C172.532857,219.935 219.417013,172.847 219.417013,114.968 C219.417013,57.088 172.532857,10 114.904416,10 L114.904416,10 Z" id="Fill-3" sketch:type="MSShapeGroup"></path>
                <path d="M114.904416,210.262 C62.5858874,210.262 20.0219481,167.513 20.0219481,114.968 C20.0219481,62.422 62.5858874,19.673 114.904416,19.673 C167.221948,19.673 209.785887,62.422 209.785887,114.968 C209.785887,167.513 167.221948,210.262 114.904416,210.262 L114.904416,210.262 Z M114.904416,22.673 C64.2337229,22.673 23.008961,64.077 23.008961,114.968 C23.008961,165.859 64.2337229,207.262 114.904416,207.262 C165.575108,207.262 206.798874,165.859 206.798874,114.968 C206.798874,64.077 165.575108,22.673 114.904416,22.673 L114.904416,22.673 Z" id="Fill-4" sketch:type="MSShapeGroup"></path>
                <path d="M84.0694805,60.568 C85.2871861,61.057 86.5038961,62.524 95.9966234,62.769 C105.488355,63.013 115.101558,60.202 117.171558,59.468 C119.240563,58.735 118.50974,59.957 117.535974,60.935 C116.562208,61.913 115.589437,62.524 113.520433,66.557 C111.451429,70.591 110.721602,74.135 110.60013,75.602 C110.477662,77.068 109.382424,76.335 108.287186,75.602 C107.191948,74.869 106.583593,74.379 102.44658,71.935 C98.3085714,69.491 87.1122511,69.369 85.7740693,69.369 C84.4358874,69.369 84.0694805,69.246 83.5835931,70.713 C83.09671,72.18 81.271645,77.802 80.66329,79.269 C80.0539394,80.735 79.5680519,81.591 81.7585281,81.591 C83.9480087,81.591 98.9169264,83.424 103.541818,91.369 C108.165714,99.313 107.921775,111.291 103.176407,119.48 C98.4300433,127.669 90.2764935,132.435 84.4358874,133.536 C78.59329,134.636 73.9703896,134.024 69.4669697,133.658 C64.9645455,133.291 54.8644589,128.158 55.4728139,116.546 C56.0811688,104.935 65.328961,100.902 71.9013853,100.658 C78.4718182,100.413 83.9480087,103.957 84.4358874,108.235 C84.9227706,112.513 81.7585281,116.424 78.2288745,116.18 C74.9431602,115.935 74.0918615,114.102 75.4300433,112.513 C76.5252814,111.291 76.281342,108.724 74.3348052,106.28 C72.6312121,104.08 69.1015584,104.202 65.0860173,107.624 C61.0704762,111.046 61.3134199,117.891 63.017013,122.046 C64.7216017,126.202 67.8858442,131.58 77.8644589,129.38 C87.8420779,127.18 91.2502597,122.658 95.2658009,116.546 C100.499048,108.602 96.7264502,101.513 91.4932035,96.747 C86.2599567,91.979 75.6739827,92.591 73.361039,92.591 C71.0490909,92.591 70.3192641,91.857 71.5349784,90.146 C72.752684,88.435 74.2133333,85.991 77.4980519,78.78 C80.7837662,71.568 82.0014719,64.479 82.4873593,61.79 C82.7322944,60.446 82.8527706,60.08 84.0694805,60.568" id="Fill-5" sketch:type="MSShapeGroup"></path>
                <path d="M110.722597,130.847 C111.817835,129.013 116.077316,123.269 122.283333,118.502 C128.490346,113.735 132.019004,111.658 140.050087,107.624 C148.082165,103.591 154.653593,100.902 158.669134,95.524 C162.685671,90.146 163.537965,84.402 163.659437,80.979 C163.780909,77.558 161.468961,64.968 147.352338,64.968 C133.235714,64.968 129.827532,77.558 129.95,81.713 C130.071472,85.869 133.966537,92.957 139.928615,92.957 C145.891688,92.957 145.770216,88.191 145.891688,87.335 C146.01316,86.479 145.04039,83.058 141.389264,83.058 C137.739134,83.058 139.441732,84.524 138.10355,84.035 C136.764372,83.546 137.739134,82.202 138.711905,81.346 C139.685671,80.491 141.510736,78.168 144.79645,78.29 C148.082165,78.413 152.95,83.18 150.515584,91.247 C148.568052,97.724 137.008312,103.224 128.976234,95.524 C120.457273,87.335 125.203636,72.302 134.939307,65.457 C144.674978,58.613 161.347489,59.835 168.039394,67.046 C174.976234,74.502 177.288182,87.457 165.849913,97.479 C154.410649,107.502 145.404805,109.091 136.764372,113.857 C128.123939,118.624 124.22987,120.213 123.500043,121.191 C122.527273,122.536 122.769221,122.658 124.108398,122.658 C125.447576,122.658 149.542814,122.658 152.707056,122.413 C155.870303,122.169 160.008312,119.357 161.347489,118.135 C162.685671,116.913 162.928615,116.913 163.537965,117.28 C164.145325,117.646 164.389264,117.524 164.632208,118.013 C164.876147,118.502 164.632208,119.235 163.902381,120.091 C163.172554,120.946 159.765368,124.491 158.183247,127.791 C156.601126,131.091 156.357186,131.702 156.114242,132.435 C155.870303,133.169 155.626364,134.269 153.436883,134.146 C151.246407,134.024 144.552511,134.024 138.833377,133.658 C133.114242,133.291 128.490346,131.824 123.135628,131.58 C117.780909,131.335 113.398961,132.68 112.183247,133.536 C110.965541,134.391 109.38342,133.046 110.722597,130.847" id="Fill-6" sketch:type="MSShapeGroup"></path>
                <path d="M51.2382251,150.731 L47.5761472,150.731 L47.5761472,153.268 L51.1087879,153.268 L51.1087879,154.765 L47.5761472,154.765 L47.5761472,159.789 L45.9900433,159.789 L45.9900433,149.234 L51.2382251,149.234 L51.2382251,150.731" id="Fill-7" sketch:type="MSShapeGroup"></path>
                <path d="M54.0519913,149.234 L55.6380952,149.234 L55.6380952,159.789 L54.0519913,159.789 L54.0519913,149.234 Z" id="Fill-8" sketch:type="MSShapeGroup"></path>
                <path d="M64.3860606,150.731 L60.7239827,150.731 L60.7239827,153.268 L64.2566234,153.268 L64.2566234,154.765 L60.7239827,154.765 L60.7239827,159.789 L59.1378788,159.789 L59.1378788,149.234 L64.3860606,149.234 L64.3860606,150.731" id="Fill-9" sketch:type="MSShapeGroup"></path>
                <path d="M70.0992208,150.731 L70.0992208,159.789 L68.5131169,159.789 L68.5131169,150.731 L66.0966234,150.731 L66.0966234,149.234 L72.5087446,149.234 L72.5087446,150.731 L70.0992208,150.731" id="Fill-10" sketch:type="MSShapeGroup"></path>
                <path d="M77.7041558,155.229 L74.2730736,149.234 L76.0971429,149.234 L78.499697,153.452 L80.9102165,149.234 L82.73329,149.234 L79.2902597,155.229 L79.2902597,159.789 L77.7041558,159.789 L77.7041558,155.229" id="Fill-11" sketch:type="MSShapeGroup"></path>
                <path d="M83.4242857,155.735 L86.4600866,155.735 L86.4600866,157.075 L83.4242857,157.075 L83.4242857,155.735 Z" id="Fill-12" sketch:type="MSShapeGroup"></path>
                <path d="M91.764026,150.731 L91.764026,159.789 L90.1779221,159.789 L90.1779221,150.731 L87.7614286,150.731 L87.7614286,149.234 L94.1735498,149.234 L94.1735498,150.731 L91.764026,150.731" id="Fill-13" sketch:type="MSShapeGroup"></path>
                <path d="M97.7091775,149.234 L100.445281,156.289 L103.303853,148.722 L106.039957,156.289 L108.94632,149.234 L110.667835,149.234 L105.972251,160.459 L103.269004,152.98 L100.452251,160.466 L95.9866667,149.234 L97.7091775,149.234" id="Fill-14" sketch:type="MSShapeGroup"></path>
                <path d="M111.949264,154.464 C111.949264,152.978 112.491905,151.702 113.57619,150.636 C114.656494,149.569 115.953853,149.036 117.469264,149.036 C118.966753,149.036 120.251169,149.574 121.321515,150.649 C122.39684,151.725 122.935498,153.017 122.935498,154.525 C122.935498,156.043 122.394848,157.331 121.315541,158.388 C120.231255,159.45 118.920952,159.98 117.387619,159.98 C116.031515,159.98 114.812814,159.509 113.732511,158.565 C112.54368,157.522 111.949264,156.155 111.949264,154.464 L111.949264,154.464 Z M113.549307,154.481 C113.549307,155.646 113.93961,156.605 114.719221,157.356 C115.495844,158.108 116.391948,158.483 117.408528,158.483 C118.510736,158.483 119.441688,158.101 120.198398,157.336 C120.956104,156.562 121.335455,155.619 121.335455,154.508 C121.335455,153.384 120.961082,152.441 120.212338,151.681 C119.468571,150.915 118.54658,150.533 117.449351,150.533 C116.355108,150.533 115.433117,150.915 114.679394,151.681 C113.924675,152.436 113.549307,153.37 113.549307,154.481 L113.549307,154.481 Z" id="Fill-15" sketch:type="MSShapeGroup"></path>
                <path d="M137.124805,150.8 L135.837403,151.565 C135.597446,151.146 135.368442,150.873 135.15039,150.745 C134.923377,150.599 134.631645,150.526 134.272208,150.526 C133.832121,150.526 133.467706,150.652 133.175974,150.903 C132.885238,151.149 132.740866,151.459 132.740866,151.833 C132.740866,152.348 133.122208,152.763 133.884892,153.078 L134.932338,153.509 C135.785628,153.855 136.409913,154.279 136.804199,154.778 C137.199481,155.277 137.396623,155.89 137.396623,156.615 C137.396623,157.586 137.074026,158.389 136.429827,159.023 C135.781645,159.661 134.975152,159.98 134.013333,159.98 C133.101299,159.98 132.347576,159.708 131.754156,159.163 C131.168701,158.619 130.80329,157.854 130.657922,156.87 L132.264935,156.515 C132.337619,157.134 132.464069,157.563 132.646277,157.8 C132.972857,158.255 133.448788,158.483 134.075065,158.483 C134.569913,158.483 134.98013,158.317 135.30671,157.985 C135.63329,157.652 135.797576,157.231 135.797576,156.721 C135.797576,156.516 135.768701,156.328 135.712944,156.157 C135.655195,155.987 135.56658,155.83 135.446104,155.686 C135.326623,155.542 135.170303,155.408 134.98013,155.283 C134.789957,155.158 134.562944,155.038 134.300087,154.924 L133.285498,154.501 C131.846753,153.891 131.127879,152.998 131.127879,151.823 C131.127879,151.031 131.429567,150.368 132.032944,149.835 C132.637316,149.298 133.387056,149.029 134.286147,149.029 C135.497879,149.029 136.443766,149.62 137.124805,150.8" id="Fill-16" sketch:type="MSShapeGroup"></path>
                <path d="M146.349697,157.226 L141.851255,157.226 L140.680346,159.789 L138.971775,159.789 L144.172165,148.571 L149.188355,159.789 L147.4529,159.789 L146.349697,157.226 L146.349697,157.226 Z M145.703506,155.728 L144.144286,152.14 L142.51039,155.728 L145.703506,155.728 L145.703506,155.728 Z" id="Fill-17" sketch:type="MSShapeGroup"></path>
                <path d="M153.062511,149.234 L153.062511,158.292 L156.153074,158.292 L156.153074,159.789 L151.477403,159.789 L151.477403,149.234 L153.062511,149.234" id="Fill-18" sketch:type="MSShapeGroup"></path>
                <path d="M165.391905,157.226 L160.893463,157.226 L159.722554,159.789 L158.013983,159.789 L163.214372,148.571 L168.230563,159.789 L166.495108,159.789 L165.391905,157.226 L165.391905,157.226 Z M164.745714,155.728 L163.186494,152.14 L161.552597,155.728 L164.745714,155.728 L164.745714,155.728 Z" id="Fill-19" sketch:type="MSShapeGroup"></path>
                <path d="M170.51961,159.789 L170.51961,149.234 L172.724026,149.234 C173.781429,149.234 174.616797,149.339 175.229134,149.549 C175.887273,149.754 176.48368,150.103 177.019351,150.595 C178.103636,151.588 178.646277,152.894 178.646277,154.512 C178.646277,156.134 178.080736,157.447 176.950649,158.449 C176.384113,158.951 175.788701,159.299 175.167403,159.495 C174.586926,159.691 173.763506,159.789 172.697143,159.789 L170.51961,159.789 L170.51961,159.789 Z M172.104719,158.292 L172.81961,158.292 C173.532511,158.292 174.124935,158.217 174.595887,158.066 C175.067835,157.907 175.494978,157.654 175.875325,157.308 C176.656926,156.592 177.046234,155.66 177.046234,154.512 C177.046234,153.354 176.659913,152.415 175.889264,151.695 C175.195281,151.053 174.172727,150.731 172.81961,150.731 L172.104719,150.731 L172.104719,158.292 L172.104719,158.292 Z" id="Fill-20" sketch:type="MSShapeGroup"></path>
                <path d="M187.558528,150.8 L186.272121,151.565 C186.031169,151.146 185.802165,150.873 185.584113,150.745 C185.358095,150.599 185.065368,150.526 184.706926,150.526 C184.265844,150.526 183.901429,150.652 183.610693,150.903 C183.319957,151.149 183.174589,151.459 183.174589,151.833 C183.174589,152.348 183.555931,152.763 184.318615,153.078 L185.367056,153.509 C186.219351,153.855 186.843636,154.279 187.238918,154.778 C187.633203,155.277 187.830346,155.89 187.830346,156.615 C187.830346,157.586 187.508745,158.389 186.864545,159.023 C186.215368,159.661 185.40987,159.98 184.448052,159.98 C183.536017,159.98 182.782294,159.708 182.187879,159.163 C181.60342,158.619 181.237013,157.854 181.092641,156.87 L182.698658,156.515 C182.771342,157.134 182.897792,157.563 183.08,157.8 C183.40658,158.255 183.882511,158.483 184.508788,158.483 C185.003636,158.483 185.413853,158.317 185.740433,157.985 C186.068009,157.652 186.231299,157.231 186.231299,156.721 C186.231299,156.516 186.20342,156.328 186.146667,156.157 C186.088918,155.987 186.001299,155.83 185.879827,155.686 C185.760346,155.542 185.605022,155.408 185.413853,155.283 C185.22368,155.158 184.997662,155.038 184.73381,154.924 L183.719221,154.501 C182.281472,153.891 181.561602,152.998 181.561602,151.823 C181.561602,151.031 181.86329,150.368 182.467662,149.835 C183.071039,149.298 183.821775,149.029 184.71987,149.029 C185.931602,149.029 186.877489,149.62 187.558528,150.8" id="Fill-21" sketch:type="MSShapeGroup"></path>
            </g>
        </g>
    </g>
</svg>